<svg width="35" height="35" viewBox="0 0 35 35" fill="none" xmlns="http://www.w3.org/2000/svg">
<path d="M17.5 0C10.7118 0 5.19531 5.5166 5.19531 12.3047C5.19531 14.6016 5.83119 16.837 7.04108 18.7647L16.6659 34.5157C16.8301 34.7823 17.0762 34.9464 17.3633 34.9874C17.7529 35.0489 18.1837 34.8849 18.4092 34.4952L28.0616 18.6006C29.2099 16.7139 29.8047 14.5196 29.8047 12.3047C29.8047 5.5166 24.2882 0 17.5 0ZM17.5 18.457C14.0548 18.457 11.3477 15.668 11.3477 12.3047C11.3477 8.92083 14.1161 6.15234 17.5 6.15234C20.8839 6.15234 23.6523 8.92083 23.6523 12.3047C23.6523 15.6475 20.9863 18.457 17.5 18.457Z" fill="#0F61DC"/>
<path d="M17.5 0V6.15234C20.8839 6.15234 23.6523 8.92083 23.6523 12.3047C23.6523 15.6475 20.9863 18.457 17.5 18.457V34.9994C17.8499 35.0075 18.2098 34.8398 18.4092 34.4952L28.0615 18.6006C29.2099 16.7139 29.8047 14.5196 29.8047 12.3047C29.8047 5.5166 24.2882 0 17.5 0Z" fill="#0F61DC"/>
</svg>
