<svg width="35" height="35" viewBox="0 0 35 35" fill="none" xmlns="http://www.w3.org/2000/svg">
<path d="M17.5 0C10.7118 0 5.19531 5.5166 5.19531 12.3047C5.19531 14.6016 5.83119 16.837 7.04108 18.7647L16.6659 34.5157C16.8301 34.7823 17.0762 34.9464 17.3634 34.9874C17.7529 35.0489 18.1837 34.8849 18.4092 34.4952L28.0616 18.6006C29.2099 16.7139 29.8047 14.5196 29.8047 12.3047C29.8047 5.5166 24.2882 0 17.5 0ZM17.5 18.457C14.0548 18.457 11.3477 15.668 11.3477 12.3047C11.3477 8.92083 14.1161 6.15234 17.5 6.15234C20.8839 6.15234 23.6523 8.92083 23.6523 12.3047C23.6523 15.6475 20.9863 18.457 17.5 18.457Z" fill="#FD003A"/>
<path d="M17.5 0V6.15234C20.8839 6.15234 23.6523 8.92083 23.6523 12.3047C23.6523 15.6475 20.9863 18.457 17.5 18.457V34.9994C17.8499 35.0075 18.2098 34.8398 18.4092 34.4952L28.0615 18.6006C29.2099 16.7139 29.8047 14.5196 29.8047 12.3047C29.8047 5.5166 24.2882 0 17.5 0Z" fill="#FD003A"/>
<rect width="13" height="13" transform="translate(11 6)" fill="#FD003A"/>
<path d="M18.3848 13.9838C18.3695 13.9709 18.3519 13.9611 18.3328 13.955C18.3137 13.949 18.2937 13.9467 18.2737 13.9484C18.2538 13.9501 18.2344 13.9557 18.2166 13.9649C18.1988 13.9741 18.1831 13.9867 18.1702 14.002L17.1698 15.188C17.1568 15.2034 17.147 15.2211 17.141 15.2403C17.1349 15.2595 17.1327 15.2797 17.1344 15.2997L17.4282 18.5811C17.4316 18.6189 17.449 18.6542 17.4771 18.6798C17.5051 18.7055 17.5418 18.7198 17.5798 18.7198C17.5843 18.7198 17.5889 18.7196 17.5935 18.7192C17.6135 18.7174 17.6328 18.7117 17.6506 18.7025C17.6683 18.6932 17.684 18.6805 17.6969 18.6652C17.7097 18.6498 17.7194 18.6321 17.7254 18.613C17.7313 18.5939 17.7335 18.5738 17.7317 18.5539L17.4435 15.3359L18.403 14.1984C18.4291 14.1675 18.4418 14.1276 18.4384 14.0873C18.435 14.0471 18.4157 14.0098 18.3848 13.9838V13.9838Z" fill="black"/>
<path d="M16.856 14.5509C16.8395 14.5396 16.8209 14.5316 16.8013 14.5275C16.7817 14.5234 16.7615 14.5232 16.7419 14.5269C16.7222 14.5306 16.7034 14.5381 16.6867 14.549C16.6699 14.56 16.6555 14.5741 16.6442 14.5906L15.6912 15.9838C15.6802 15.9999 15.6723 16.018 15.6681 16.0371L15.1295 18.4857C15.1208 18.5252 15.1281 18.5665 15.1499 18.6005C15.1717 18.6346 15.2061 18.6586 15.2455 18.6672C15.285 18.6759 15.3263 18.6686 15.3603 18.6468C15.3944 18.625 15.4184 18.5906 15.4271 18.5512L15.9594 16.1314L16.8957 14.7626C16.907 14.7461 16.9149 14.7275 16.919 14.708C16.9232 14.6884 16.9234 14.6682 16.9197 14.6485C16.916 14.6289 16.9085 14.6101 16.8975 14.5934C16.8866 14.5766 16.8725 14.5622 16.856 14.5509V14.5509Z" fill="black"/>
<path d="M19.5236 14.7389C19.4954 14.71 19.4569 14.6934 19.4165 14.6929C19.3761 14.6923 19.3372 14.7079 19.3082 14.7361L18.4532 15.5689C18.4344 15.5872 18.4206 15.61 18.4133 15.6351C18.4059 15.6603 18.4051 15.6869 18.4111 15.7124L19.0477 18.4549C19.0522 18.4745 19.0605 18.4929 19.0721 18.5093C19.0837 18.5256 19.0984 18.5395 19.1154 18.5501C19.1324 18.5607 19.1514 18.5679 19.1711 18.5712C19.1909 18.5745 19.2111 18.5739 19.2307 18.5693C19.2502 18.5648 19.2686 18.5565 19.2849 18.5448C19.3012 18.5331 19.3151 18.5183 19.3256 18.5013C19.3362 18.4843 19.3433 18.4653 19.3466 18.4455C19.3498 18.4257 19.3491 18.4055 19.3445 18.386L18.7272 15.7271L19.5208 14.9543C19.5497 14.9261 19.5663 14.8876 19.5668 14.8472C19.5673 14.8068 19.5518 14.7678 19.5236 14.7389V14.7389Z" fill="black"/>
<path d="M22.8265 16.9125C22.8343 16.931 22.8456 16.9478 22.8598 16.9619C22.874 16.976 22.8909 16.9872 22.9094 16.9948C22.928 17.0024 22.9479 17.0062 22.9679 17.0061C22.988 17.006 23.0078 17.002 23.0263 16.9942C23.0448 16.9864 23.0615 16.9751 23.0756 16.9608C23.0897 16.9465 23.1008 16.9296 23.1083 16.911C23.1159 16.8924 23.1196 16.8726 23.1195 16.8525C23.1193 16.8325 23.1152 16.8126 23.1073 16.7942L22.6446 15.6953L22.3638 15.8135L22.8265 16.9125Z" fill="black"/>
<path d="M11.9205 9.02306C11.836 9.27153 11.8857 9.52925 12.0723 9.81088C12.0992 9.84549 12.443 10.2764 13.2725 10.7783C14.069 11.2604 15.4883 11.9081 17.7263 12.2564C17.7291 12.2568 17.7318 12.2575 17.7346 12.2581C18.0164 12.2427 18.2988 12.2427 18.5806 12.2581L18.2896 12.0892C17.382 11.5983 16.5005 11.0605 15.6488 10.478C14.3205 9.56033 13.4534 8.75417 13.0571 8.07096C12.7794 8.18573 12.0934 8.51444 11.9205 9.02306V9.02306Z" fill="black"/>
<path d="M13.4233 6.68047C13.4212 6.68237 13.4188 6.68458 13.4166 6.68638C13.1872 6.87656 13.0891 7.09738 13.1165 7.36142C13.1363 7.51558 13.1836 7.66495 13.2561 7.80245C13.2597 7.80836 13.2628 7.8145 13.2656 7.82084C13.598 8.47084 14.4661 9.2905 15.8199 10.2259C16.6631 10.8029 17.5359 11.3354 18.4346 11.8214C18.4365 11.8223 18.4382 11.8233 18.44 11.8243L18.6421 11.9416L13.7691 6.45957C13.6445 6.51753 13.5283 6.59181 13.4233 6.68047V6.68047Z" fill="black"/>
<path d="M20.5971 13.101L20.2177 13.225C19.9528 13.3116 19.7271 13.489 19.5804 13.7259L19.1086 14.4887C19.6535 14.7924 20.1847 14.9125 20.6794 14.8384C21.0076 14.7902 21.317 14.6553 21.5757 14.4477C21.4453 13.8678 21.1175 13.4179 20.5971 13.101V13.101Z" fill="black"/>
<path d="M16.8699 7.73728C16.1499 6.83005 15.4141 6.34161 14.6827 6.28552C14.6363 6.28194 14.5908 6.28029 14.5464 6.28029C14.387 6.28033 14.2283 6.30201 14.0747 6.34473L19.0068 11.8933C18.5776 10.2244 16.946 7.8475 16.8699 7.73728Z" fill="black"/>
<path d="M17.3851 12.5931L12.7418 15.3245C14.0606 15.5818 15.3202 15.1798 16.1741 14.7751C17.19 14.2939 17.8647 13.7082 17.8714 13.7024C17.9 13.6773 17.9371 13.6639 17.9751 13.6647C18.0132 13.6656 18.0496 13.6807 18.0771 13.707C18.3149 13.9375 18.573 14.1461 18.8482 14.3303L19.3212 13.5657C19.5058 13.2676 19.7898 13.0443 20.1231 12.9353L20.2131 12.9059C19.9303 12.7897 19.6356 12.7046 19.3344 12.652C18.4275 12.4854 17.5543 12.5734 17.3851 12.5931V12.5931Z" fill="black"/>
<path d="M22.1099 14.606C21.9996 14.606 21.8918 14.6387 21.8001 14.7C21.7083 14.7613 21.6368 14.8484 21.5946 14.9503C21.5524 15.0523 21.5414 15.1644 21.5629 15.2726C21.5844 15.3808 21.6375 15.4802 21.7155 15.5582C21.7935 15.6362 21.8929 15.6893 22.0011 15.7108C22.1093 15.7323 22.2215 15.7213 22.3234 15.6791C22.4253 15.6369 22.5124 15.5654 22.5737 15.4737C22.635 15.3819 22.6677 15.2741 22.6677 15.1638C22.6675 15.0159 22.6087 14.8741 22.5041 14.7696C22.3996 14.665 22.2578 14.6062 22.1099 14.606V14.606Z" fill="black"/>
</svg>
